<svg id="adc7957d-a866-44ec-9dc0-50f0d0a6a5a1" xmlns="http://www.w3.org/2000/svg" viewBox="0 0 219.2 111.5">
    <defs>
        <style>
            .e4598e2c-a698-449f-a2cc-707a73e30509{fill:#fffef7}.e6efc4ab-5e67-4839-81bc-22f676322c36{fill:#1e1a17}
        </style>
    </defs>
    <rect class="e4598e2c-a698-449f-a2cc-707a73e30509" width="219" height="49"/>
    <rect class="e4598e2c-a698-449f-a2cc-707a73e30509" y="62.5" width="185" height="49"/>
    <path class="e6efc4ab-5e67-4839-81bc-22f676322c36" d="M3.88,6.63H18.07c11,0,15.73,7.7,15.73,17.7s-4.73,18-15.73,18H3.88Zm14.19,29c4.62,0,7.31-4.07,7.31-11.28,0-7-2.64-10.94-7.31-10.94H11.91V35.61Z"/>
    <path class="e6efc4ab-5e67-4839-81bc-22f676322c36" d="M54.92,6C66.3,6,71.19,14.55,71.19,24.5S66.3,43,54.92,43,38.64,34.34,38.64,24.5,43.53,6,54.92,6ZM62.78,24.5c0-7.31-3-11.71-7.86-11.71s-7.87,4.4-7.87,11.71,3,11.71,7.87,11.71S62.78,31.81,62.78,24.5Z"/>
    <path class="e6efc4ab-5e67-4839-81bc-22f676322c36" d="M78.9,6.63h8.74L96,29.23l8.46-22.6h8.75l3.08,35.74h-7.92l-1.54-22.6L100,37.64H92.1L85.5,20.1,83.74,42.37H75.82Z"/>
    <path class="e6efc4ab-5e67-4839-81bc-22f676322c36" d="M122,6.63h8V42.37h-8Z"/>
    <path class="e6efc4ab-5e67-4839-81bc-22f676322c36" d="M137.09,6.63h7l13,21.17V6.63h7.7V42.37h-7l-13-20.62V42.37h-7.7Z"/>
    <path class="e6efc4ab-5e67-4839-81bc-22f676322c36" d="M171.68,6.63h8V42.37h-8Z"/>
    <path class="e6efc4ab-5e67-4839-81bc-22f676322c36" d="M202.59,6A17.47,17.47,0,0,1,215,10.7l-4,5.11a11.32,11.32,0,0,0-7.87-3c-5.93,0-9,4.07-9,11.71s2.8,11.71,8.91,11.71a12.7,12.7,0,0,0,8.69-3.41l3.79,5.28c-3.63,3.52-8,4.9-13.31,4.9-11.54,0-16.49-7.7-16.49-18.42C185.71,14,190.82,6,202.59,6Z"/>
    <path class="e6efc4ab-5e67-4839-81bc-22f676322c36" d="M20,68.52a20,20,0,0,1,12.43,4.24l-3.68,5.33c-3.19-2-5.34-2.8-8.75-2.8-6.16,0-8.91,4.84-8.91,11.6,0,7.59,2.86,11.82,8.91,11.82a14.11,14.11,0,0,0,6.27-1.43V91.4h-5V86.12H33.14V101a23.1,23.1,0,0,1-13.64,4.46c-11.66,0-16.83-7.81-16.83-18.42S8.11,68.52,20,68.52Z"/>
    <path class="e6efc4ab-5e67-4839-81bc-22f676322c36" d="M49.53,69.13h8.69L70,104.87H61.63L59.21,97H47.93l-2.31,7.86h-8Zm7.92,22.16-4-13-3.85,13Z"/>
    <path class="e6efc4ab-5e67-4839-81bc-22f676322c36" d="M74.72,69.13h8v35.74h-8Z"/>
    <path class="e6efc4ab-5e67-4839-81bc-22f676322c36" d="M89.9,69.13h22.27v6.76H97.93v7.65h12.53v6.65H97.93v7.92h15.12l-.5,6.76H89.9Z"/>
    <path class="e6efc4ab-5e67-4839-81bc-22f676322c36" d="M118.72,69.13h11.93c8.08,0,12.43,4.67,12.43,11.16a10,10,0,0,1-6.33,9.35,8,8,0,0,1,2.42,3l6.44,12.21h-8.8L131.7,94.2c-1-2.2-1.82-3.08-3.58-3.08h-1.37v13.75h-8ZM130.49,84.8c2.91,0,4.18-1.7,4.18-4.51s-1.27-4.4-4.18-4.4h-3.74V84.8Z"/>
    <path class="e6efc4ab-5e67-4839-81bc-22f676322c36" d="M165.13,68.52c11.39,0,16.28,8.53,16.28,18.48s-4.89,18.48-16.28,18.48S148.86,96.84,148.86,87,153.75,68.52,165.13,68.52ZM173,87c0-7.31-3-11.71-7.87-11.71s-7.86,4.4-7.86,11.71,3,11.71,7.86,11.71S173,94.31,173,87Z"/>
</svg>
